<?xml version="1.0" encoding="UTF-8"?>
<svg version="1.1" viewBox="0 0 199.4 170.87" xmlns="http://www.w3.org/2000/svg">
 <defs>
  <filter id="a" color-interpolation-filters="sRGB">
   <feGaussianBlur stdDeviation="9.4132813"/>
  </filter>
 </defs>
 <g transform="translate(-28.015 -37.428)">
  <g transform="matrix(.439 0 0 .439 -13.53 -68.375)" fill-rule="evenodd">
   <g transform="translate(8.9098 -1.2744)">
    <path transform="translate(-109.59 12.743)" d="m355.52 320.93c0 38.003-30.807 68.81-68.81 68.81s-68.81-30.807-68.81-68.81 30.807-68.81 68.81-68.81 68.81 30.807 68.81 68.81z"/>
    <path transform="translate(33.131 12.743)" d="m355.52 320.93c0 38.003-30.807 68.81-68.81 68.81s-68.81-30.807-68.81-68.81 30.807-68.81 68.81-68.81 68.81 30.807 68.81 68.81z"/>
    <rect x="229.37" y="348.97" width="34.405" height="58.616"/>
    <rect transform="matrix(.70619 -.70802 .70802 .70619 0 0)" x="-112.66" y="354.92" width="34.405" height="94.296"/>
    <rect transform="matrix(-.70619 -.70802 -.70802 .70619 0 0)" x="-462.71" y="3.9555" width="34.405" height="94.296"/>
    <rect x="115.96" y="410.13" width="265.05" height="164.38" ry="20.388"/>
    <rect x="384.83" y="450.91" width="70.085" height="82.827"/>
    <rect x="458.74" y="434.98" width="28.034" height="114.68"/>
    <rect x="489.32" y="416.5" width="28.034" height="151.64"/>
    <rect x="159.28" y="577.06" width="180.95" height="31.857"/>
   </g>
   <path d="m186.04 263.6c-38.003 0-68.812 30.81-68.812 68.812s30.81 68.812 68.812 68.812c18.499 0 35.291-7.3107 47.656-19.188l4.5938 4.5938v19.688h34.406v-17.156l7.7812-7.75c12.423 12.242 29.462 19.812 48.281 19.812 38.003 0 68.812-30.81 68.812-68.812s-30.81-68.812-68.812-68.812-68.812 30.81-68.812 68.812c0 5.2602 0.60091 10.359 1.7188 15.281h-8.5312c1.1178-4.9218 1.7188-10.021 1.7188-15.281 0-38.003-30.81-68.812-68.812-68.812zm-40.781 145.25c-11.295 0-20.375 9.1112-20.375 20.406v123.59c0 11.295 9.0799 20.375 20.375 20.375h224.28c11.295 0 20.375-9.0799 20.375-20.375v-123.59c0-11.295-9.0799-20.406-20.375-20.406h-224.28zm352.97 6.375v151.62h28.031v-151.62h-28.031zm-30.562 18.469v114.69h28.031v-114.69h-28.031zm-73.906 15.938v82.844h70.062v-82.844h-70.062zm-225.56 126.16v31.844h180.97v-31.844h-180.97z" filter="url(#a)" opacity=".7"/>
  </g>
 </g>
</svg>
